PathFileType	4	(X/Y/Z)	S1_nor_med_right & left.trc
DataRate	CameraRate	NumFrames	NumMarkers	Units	OrigDataRate	OrigDataStartFrame	OrigNumFrames
250.00	250.00	13	18	mm	250.00	12595	16793
Frame#	Time	c7	r_should	l_should	clavicle	r_upa	r_elb_l	r_elb_m	r_low	r_wri_l	r_wri_m	r_met	l_upa	l_elb_l	l_elb_m	l_low	l_wri_l	l_wri_m	l_met
	X1	Y1	Z1	X2	Y2	Z2	X3	Y3	Z3	X4	Y4	Z4	X5	Y5	Z5	X6	Y6	Z6	X7	Y7	Z7	X8	Y8	Z8	X9	Y9	Z9	X10	Y10	Z10	X11	Y11	Z11	X12	Y12	Z12	X13	Y13	Z13	X14	Y14	Z14	X15	Y15	Z15	X16	Y16	Z16	X17	Y17	Z17	X18	Y18	Z18
12595	50.37600	896.91626	1418.73865	77.24700	978.20984	1355.57605	259.11758	939.35242	1342.44202	-113.86244	1032.57410	1296.49609	66.98750	983.04663	1142.83081	307.24243	1006.83618	1041.04114	312.51483	928.20825	1023.45312	244.98808	961.15125	911.74463	328.99509	1038.85840	821.16272	297.08325	971.62531	805.80743	318.09662	1075.12952	746.17682	312.88242	988.87598	1130.90991	-131.32318	1001.64996	1086.42603	-136.36212	1022.92407	1047.65466	-29.37802	1097.34912	1143.97998	-92.14706	1076.96106	1246.28418	-111.51878	1127.75110	1235.28918	-60.73291	1107.31384	1313.47559	-132.04642
12596	50.38000	896.84332	1418.73206	77.29554	978.19202	1355.56628	259.13742	939.21991	1342.45886	-113.82571	1032.49426	1296.50024	66.99106	983.07086	1142.81494	307.26147	1006.83997	1041.03162	312.53125	928.19464	1023.43848	245.02716	961.15210	911.73535	329.02869	1038.85144	821.15088	297.10748	971.62738	805.80151	318.14368	1075.12183	746.15631	312.89627	988.69745	1130.89880	-131.33008	1001.44360	1086.41663	-136.37952	1022.78009	1047.64331	-29.41902	1097.19592	1143.94226	-92.25555	1076.85522	1246.25256	-111.63835	1127.67334	1235.24731	-60.87252	1107.23401	1313.45569	-132.17368
12597	50.38400	896.76459	1418.72412	77.35197	978.17621	1355.54761	259.15924	939.07800	1342.47534	-113.79288	1032.41199	1296.49939	67.00370	983.08490	1142.81030	307.27631	1006.83716	1041.01135	312.55051	928.19507	1023.42072	245.05322	961.15723	911.72528	329.06091	1038.84265	821.13873	297.13348	971.63031	805.78711	318.18674	1075.12109	746.13196	312.91000	988.50916	1130.89075	-131.33937	1001.22784	1086.39233	-136.39790	1022.32001	1047.46204	-29.73311	1097.03870	1143.88940	-92.37595	1076.77161	1246.20630	-111.75623	1127.60022	1235.17639	-61.02459	1107.17432	1313.40796	-132.30025
12598	50.38800	896.67773	1418.72729	77.39761	978.15100	1355.53320	259.18512	938.93518	1342.49207	-113.75646	1032.32715	1296.49634	67.02246	983.09961	1142.79883	307.29202	1006.83270	1040.99402	312.57492	928.17340	1023.41351	245.09087	961.15784	911.71387	329.09286	1038.83728	821.12036	297.16327	971.63184	805.76923	318.23401	1075.11731	746.11200	312.93433	988.31226	1130.88147	-131.35066	1000.99707	1086.37354	-136.43628	1021.76526	1047.23145	-30.12580	1096.88843	1143.82080	-92.49720	1076.69849	1246.14771	-111.88248	1127.53577	1235.07434	-61.16929	1107.14978	1313.35327	-132.42731
12599	50.39200	896.58905	1418.71643	77.46096	978.12140	1355.50952	259.21796	938.78998	1342.50989	-113.72311	1032.23633	1296.49976	67.04079	983.10754	1142.78784	307.31808	1006.83331	1040.98083	312.60437	928.15613	1023.39600	245.12914	961.15576	911.70300	329.13235	1038.82837	821.10272	297.19421	971.63019	805.75610	318.28595	1075.11743	746.09052	312.96094	988.10229	1130.87207	-131.36783	1000.74890	1086.35986	-136.47360	1021.83331	1047.34351	-29.97575	1096.73987	1143.72925	-92.61519	1076.64429	1246.07410	-112.01694	1127.49390	1234.95862	-61.31760	1107.14966	1313.28308	-132.57031
12600	50.39600	896.49799	1418.70239	77.52666	978.08185	1355.48901	259.24893	938.64368	1342.53345	-113.69108	1032.14563	1296.49780	67.04963	983.10858	1142.77673	307.33997	1006.82721	1040.95959	312.63385	928.13751	1023.37122	245.15623	961.14941	911.69171	329.17346	1038.82056	821.08820	297.22073	971.63080	805.74408	318.33957	1075.11169	746.06616	312.98730	987.87946	1130.85693	-131.38350	1000.49744	1086.34375	-136.52161	1021.39630	1047.18518	-30.24978	1096.58362	1143.62061	-92.74689	1076.60938	1245.99316	-112.15301	1127.46265	1234.82153	-61.46784	1107.18201	1313.17920	-132.69966
12601	50.40000	896.40576	1418.69482	77.59084	978.04138	1355.47253	259.27539	938.49683	1342.55200	-113.65073	1032.04895	1296.50171	67.04995	983.09949	1142.75793	307.35052	1006.81494	1040.95142	312.65759	928.12128	1023.36060	245.19713	961.14099	911.68152	329.21191	1038.81030	821.07458	297.24799	971.63416	805.73193	318.38995	1075.10571	746.04321	313.01068	987.64502	1130.84680	-131.40416	1000.22589	1086.33472	-136.58170	1021.78333	1047.46704	-29.82298	1096.42798	1143.49365	-92.88103	1076.58936	1245.89563	-112.28709	1127.43945	1234.67065	-61.62232	1107.25281	1313.05383	-132.82329
12602	50.40400	896.31024	1418.68481	77.65221	977.99921	1355.45923	259.31116	938.35602	1342.56775	-113.61208	1031.95630	1296.51147	67.06071	983.08832	1142.75586	307.37912	1006.80353	1040.94897	312.67868	928.10956	1023.33722	245.22894	961.13324	911.66852	329.24438	1038.79907	821.06299	297.27756	971.63568	805.71881	318.43512	1075.09985	746.02277	313.03455	987.39996	1130.84290	-131.43333	999.93207	1086.32288	-136.65800	1021.70935	1047.51208	-29.78410	1096.27771	1143.35852	-93.01447	1076.58032	1245.78394	-112.42182	1127.43152	1234.49561	-61.78157	1107.35828	1312.90796	-132.94943
12603	50.40800	896.21448	1418.68054	77.71352	977.95306	1355.44055	259.34702	938.21759	1342.59497	-113.57312	1031.85913	1296.51526	67.06279	983.07471	1142.74194	307.40378	1006.79352	1040.94189	312.70438	928.09607	1023.31769	245.25595	961.12628	911.65314	329.27847	1038.78857	821.05109	297.31189	971.63214	805.70374	318.47977	1075.09277	746.00610	313.06857	987.14087	1130.84045	-131.45647	999.63324	1086.30371	-136.70940	1021.51202	1047.50317	-29.84411	1096.12427	1143.20496	-93.15504	1076.58521	1245.65723	-112.55921	1127.43774	1234.29248	-61.93213	1107.48352	1312.73218	-133.08380
12604	50.41200	896.11688	1418.68042	77.78467	977.90186	1355.42078	259.38120	938.07733	1342.62488	-113.53838	1031.76074	1296.52258	67.07047	983.06213	1142.71851	307.42062	1006.77704	1040.92249	312.73593	928.07330	1023.29382	245.28969	961.11700	911.63708	329.31577	1038.78308	821.04089	297.34659	971.62866	805.69006	318.52802	1075.08630	745.99243	313.09900	986.86377	1130.83728	-131.47569	999.33228	1086.27930	-136.75227	1021.30914	1047.47656	-29.92037	1095.96692	1143.02551	-93.29565	1076.60547	1245.52039	-112.69842	1127.45654	1234.06494	-62.09205	1107.63025	1312.53076	-133.21535
12605	50.41600	896.01892	1418.67371	77.84287	977.84119	1355.40369	259.41431	937.92957	1342.65515	-113.49833	1031.66418	1296.52930	67.08916	983.04053	1142.70361	307.43814	1006.76489	1040.91223	312.76556	928.04590	1023.27551	245.31778	961.10681	911.62372	329.35056	1038.77502	821.03699	297.38385	971.62701	805.67584	318.57642	1075.08374	745.97394	313.13306	986.57208	1130.83374	-131.48871	999.02649	1086.25134	-136.78256	1021.12531	1047.44922	-29.98330	1095.80298	1142.82458	-93.44756	1076.64026	1245.37097	-112.84380	1127.49866	1233.79968	-62.26631	1107.80090	1312.31201	-133.33922
12606	50.42000	895.91559	1418.67285	77.90726	977.77557	1355.38574	259.45813	937.77179	1342.68005	-113.45252	1031.56750	1296.53674	67.10258	983.01324	1142.69373	307.47165	1006.74164	1040.89807	312.79123	928.03198	1023.26062	245.34767	961.09131	911.60956	329.38412	1038.76489	821.03406	297.42065	971.62543	805.66302	318.62189	1075.08130	745.95166	313.17209	986.27057	1130.82190	-131.50017	998.70081	1086.21753	-136.80611	1020.90918	1047.42871	-30.06023	1095.63647	1142.61108	-93.60004	1076.69128	1245.20618	-112.98504	1127.55920	1233.50659	-62.43495	1108.00867	1312.06763	-133.49265
12607	50.42400	895.81366	1418.67896	77.98413	977.71136	1355.37219	259.50479	937.60382	1342.70410	-113.40923	1031.46826	1296.54797	67.11942	982.98297	1142.68115	307.50391	1006.72388	1040.88892	312.81052	928.01532	1023.24475	245.37749	961.07526	911.59692	329.41260	1038.75635	821.02264	297.45520	971.61908	805.64764	318.66696	1075.07629	745.94031	313.20471	985.96820	1130.80090	-131.50615	998.34546	1086.18787	-136.84129	1020.30573	1047.20630	-30.44291	1095.46179	1142.37927	-93.75830	1076.75818	1245.01379	-113.12883	1127.62708	1233.19299	-62.58969	1108.25854	1311.78198	-133.66019
